<mxfile host="app.diagrams.net" modified="2023-03-02T14:24:44.404Z" agent="5.0 (Windows NT 10.0; Win64; x64) AppleWebKit/537.36 (KHTML, like Gecko) Chrome/110.0.0.0 Safari/537.36 Edg/110.0.1587.57" etag="s308ZekWcAWTjFwSlR-p" version="20.8.23" type="github">
  <diagram id="dJLd-_wOgnxya4c3IJUS" name="第 1 页">
    <mxGraphModel dx="2049" dy="1091" grid="0" gridSize="10" guides="1" tooltips="1" connect="1" arrows="1" fold="1" page="1" pageScale="1" pageWidth="4681" pageHeight="3300" math="0" shadow="0">
      <root>
        <mxCell id="0" />
        <mxCell id="1" parent="0" />
        <mxCell id="8W87F8Ofjh_P7PELW41l-208" value="" style="rounded=1;whiteSpace=wrap;html=1;strokeWidth=1.5;fontSize=15;" vertex="1" parent="1">
          <mxGeometry x="1357" y="218" width="574" height="242" as="geometry" />
        </mxCell>
        <mxCell id="8W87F8Ofjh_P7PELW41l-87" value="" style="rounded=1;whiteSpace=wrap;html=1;strokeWidth=1.5;fontSize=14;dashed=1;" vertex="1" parent="1">
          <mxGeometry x="1775" y="522" width="726" height="453" as="geometry" />
        </mxCell>
        <mxCell id="8W87F8Ofjh_P7PELW41l-23" value="" style="curved=1;endArrow=classic;html=1;rounded=0;" edge="1" parent="1">
          <mxGeometry width="50" height="50" relative="1" as="geometry">
            <mxPoint x="340" y="189" as="sourcePoint" />
            <mxPoint x="638" y="194" as="targetPoint" />
            <Array as="points">
              <mxPoint x="490" y="134" />
            </Array>
          </mxGeometry>
        </mxCell>
        <mxCell id="8W87F8Ofjh_P7PELW41l-24" value="相似" style="edgeLabel;html=1;align=center;verticalAlign=middle;resizable=0;points=[];" vertex="1" connectable="0" parent="8W87F8Ofjh_P7PELW41l-23">
          <mxGeometry x="-0.097" y="-22" relative="1" as="geometry">
            <mxPoint as="offset" />
          </mxGeometry>
        </mxCell>
        <mxCell id="8W87F8Ofjh_P7PELW41l-25" value="基于用户的协同过滤" style="text;html=1;strokeColor=none;fillColor=none;align=center;verticalAlign=middle;whiteSpace=wrap;rounded=0;" vertex="1" parent="1">
          <mxGeometry x="408" y="106" width="158" height="30" as="geometry" />
        </mxCell>
        <mxCell id="8W87F8Ofjh_P7PELW41l-26" value="" style="group" vertex="1" connectable="0" parent="1">
          <mxGeometry x="293.5" y="204" width="394" height="270" as="geometry" />
        </mxCell>
        <mxCell id="8W87F8Ofjh_P7PELW41l-1" value="用户a" style="shape=umlActor;verticalLabelPosition=bottom;verticalAlign=top;html=1;outlineConnect=0;" vertex="1" parent="8W87F8Ofjh_P7PELW41l-26">
          <mxGeometry x="28.5" width="30" height="60" as="geometry" />
        </mxCell>
        <mxCell id="8W87F8Ofjh_P7PELW41l-2" value="用户a" style="shape=umlActor;verticalLabelPosition=bottom;verticalAlign=top;html=1;outlineConnect=0;" vertex="1" parent="8W87F8Ofjh_P7PELW41l-26">
          <mxGeometry x="178.5" width="30" height="60" as="geometry" />
        </mxCell>
        <mxCell id="8W87F8Ofjh_P7PELW41l-3" value="用户a" style="shape=umlActor;verticalLabelPosition=bottom;verticalAlign=top;html=1;outlineConnect=0;" vertex="1" parent="8W87F8Ofjh_P7PELW41l-26">
          <mxGeometry x="335.5" width="30" height="60" as="geometry" />
        </mxCell>
        <mxCell id="8W87F8Ofjh_P7PELW41l-4" value="" style="endArrow=classic;html=1;rounded=0;" edge="1" parent="8W87F8Ofjh_P7PELW41l-26">
          <mxGeometry width="50" height="50" relative="1" as="geometry">
            <mxPoint x="43" y="88" as="sourcePoint" />
            <mxPoint x="43" y="208" as="targetPoint" />
          </mxGeometry>
        </mxCell>
        <mxCell id="8W87F8Ofjh_P7PELW41l-10" value="喜欢" style="edgeLabel;html=1;align=center;verticalAlign=middle;resizable=0;points=[];" vertex="1" connectable="0" parent="8W87F8Ofjh_P7PELW41l-4">
          <mxGeometry x="-0.3667" y="-2" relative="1" as="geometry">
            <mxPoint as="offset" />
          </mxGeometry>
        </mxCell>
        <mxCell id="8W87F8Ofjh_P7PELW41l-5" value="项目a" style="rounded=0;whiteSpace=wrap;html=1;" vertex="1" parent="8W87F8Ofjh_P7PELW41l-26">
          <mxGeometry y="217" width="87" height="53" as="geometry" />
        </mxCell>
        <mxCell id="8W87F8Ofjh_P7PELW41l-6" value="项目b" style="rounded=0;whiteSpace=wrap;html=1;" vertex="1" parent="8W87F8Ofjh_P7PELW41l-26">
          <mxGeometry x="150" y="217" width="87" height="53" as="geometry" />
        </mxCell>
        <mxCell id="8W87F8Ofjh_P7PELW41l-7" value="项目c" style="rounded=0;whiteSpace=wrap;html=1;" vertex="1" parent="8W87F8Ofjh_P7PELW41l-26">
          <mxGeometry x="307" y="217" width="87" height="53" as="geometry" />
        </mxCell>
        <mxCell id="8W87F8Ofjh_P7PELW41l-8" value="" style="endArrow=classic;html=1;rounded=0;" edge="1" parent="8W87F8Ofjh_P7PELW41l-26">
          <mxGeometry width="50" height="50" relative="1" as="geometry">
            <mxPoint x="345" y="84" as="sourcePoint" />
            <mxPoint x="55.5" y="199" as="targetPoint" />
          </mxGeometry>
        </mxCell>
        <mxCell id="8W87F8Ofjh_P7PELW41l-11" value="喜欢" style="edgeLabel;html=1;align=center;verticalAlign=middle;resizable=0;points=[];" vertex="1" connectable="0" parent="8W87F8Ofjh_P7PELW41l-8">
          <mxGeometry x="-0.1052" y="-3" relative="1" as="geometry">
            <mxPoint x="37" y="-15" as="offset" />
          </mxGeometry>
        </mxCell>
        <mxCell id="8W87F8Ofjh_P7PELW41l-9" value="" style="endArrow=classic;html=1;rounded=0;" edge="1" parent="8W87F8Ofjh_P7PELW41l-26">
          <mxGeometry width="50" height="50" relative="1" as="geometry">
            <mxPoint x="350" y="85" as="sourcePoint" />
            <mxPoint x="350" y="205" as="targetPoint" />
          </mxGeometry>
        </mxCell>
        <mxCell id="8W87F8Ofjh_P7PELW41l-12" value="喜欢" style="edgeLabel;html=1;align=center;verticalAlign=middle;resizable=0;points=[];" vertex="1" connectable="0" parent="8W87F8Ofjh_P7PELW41l-9">
          <mxGeometry x="-0.35" y="4" relative="1" as="geometry">
            <mxPoint as="offset" />
          </mxGeometry>
        </mxCell>
        <mxCell id="8W87F8Ofjh_P7PELW41l-13" value="" style="endArrow=classic;html=1;rounded=0;" edge="1" parent="8W87F8Ofjh_P7PELW41l-26">
          <mxGeometry width="50" height="50" relative="1" as="geometry">
            <mxPoint x="193" y="86" as="sourcePoint" />
            <mxPoint x="193" y="206" as="targetPoint" />
          </mxGeometry>
        </mxCell>
        <mxCell id="8W87F8Ofjh_P7PELW41l-14" value="喜欢" style="edgeLabel;html=1;align=center;verticalAlign=middle;resizable=0;points=[];" vertex="1" connectable="0" parent="8W87F8Ofjh_P7PELW41l-13">
          <mxGeometry x="-0.3667" y="-2" relative="1" as="geometry">
            <mxPoint as="offset" />
          </mxGeometry>
        </mxCell>
        <mxCell id="8W87F8Ofjh_P7PELW41l-15" value="" style="endArrow=classic;html=1;rounded=0;dashed=1;" edge="1" parent="8W87F8Ofjh_P7PELW41l-26">
          <mxGeometry width="50" height="50" relative="1" as="geometry">
            <mxPoint x="53.5" y="89" as="sourcePoint" />
            <mxPoint x="178.5" y="203" as="targetPoint" />
          </mxGeometry>
        </mxCell>
        <mxCell id="8W87F8Ofjh_P7PELW41l-16" value="推荐" style="edgeLabel;html=1;align=center;verticalAlign=middle;resizable=0;points=[];" vertex="1" connectable="0" parent="8W87F8Ofjh_P7PELW41l-15">
          <mxGeometry x="-0.3667" y="-2" relative="1" as="geometry">
            <mxPoint x="-9" y="-8" as="offset" />
          </mxGeometry>
        </mxCell>
        <mxCell id="8W87F8Ofjh_P7PELW41l-17" value="" style="endArrow=classic;html=1;rounded=0;" edge="1" parent="8W87F8Ofjh_P7PELW41l-26">
          <mxGeometry width="50" height="50" relative="1" as="geometry">
            <mxPoint x="344.5" y="88" as="sourcePoint" />
            <mxPoint x="206.5" y="206" as="targetPoint" />
          </mxGeometry>
        </mxCell>
        <mxCell id="8W87F8Ofjh_P7PELW41l-18" value="喜欢" style="edgeLabel;html=1;align=center;verticalAlign=middle;resizable=0;points=[];" vertex="1" connectable="0" parent="8W87F8Ofjh_P7PELW41l-17">
          <mxGeometry x="-0.3667" y="-2" relative="1" as="geometry">
            <mxPoint as="offset" />
          </mxGeometry>
        </mxCell>
        <mxCell id="8W87F8Ofjh_P7PELW41l-47" value="" style="curved=1;endArrow=classic;html=1;rounded=0;" edge="1" parent="1">
          <mxGeometry width="50" height="50" relative="1" as="geometry">
            <mxPoint x="833" y="460" as="sourcePoint" />
            <mxPoint x="1141" y="460" as="targetPoint" />
            <Array as="points">
              <mxPoint x="971" y="529" />
            </Array>
          </mxGeometry>
        </mxCell>
        <mxCell id="8W87F8Ofjh_P7PELW41l-48" value="相似" style="edgeLabel;html=1;align=center;verticalAlign=middle;resizable=0;points=[];" vertex="1" connectable="0" parent="8W87F8Ofjh_P7PELW41l-47">
          <mxGeometry x="-0.097" y="-22" relative="1" as="geometry">
            <mxPoint x="27" y="-53" as="offset" />
          </mxGeometry>
        </mxCell>
        <mxCell id="8W87F8Ofjh_P7PELW41l-29" value="用户a" style="shape=umlActor;verticalLabelPosition=bottom;verticalAlign=top;html=1;outlineConnect=0;" vertex="1" parent="1">
          <mxGeometry x="816.5" y="174" width="30" height="60" as="geometry" />
        </mxCell>
        <mxCell id="8W87F8Ofjh_P7PELW41l-30" value="用户a" style="shape=umlActor;verticalLabelPosition=bottom;verticalAlign=top;html=1;outlineConnect=0;" vertex="1" parent="1">
          <mxGeometry x="966.5" y="174" width="30" height="60" as="geometry" />
        </mxCell>
        <mxCell id="8W87F8Ofjh_P7PELW41l-31" value="用户a" style="shape=umlActor;verticalLabelPosition=bottom;verticalAlign=top;html=1;outlineConnect=0;" vertex="1" parent="1">
          <mxGeometry x="1123.5" y="174" width="30" height="60" as="geometry" />
        </mxCell>
        <mxCell id="8W87F8Ofjh_P7PELW41l-32" value="" style="endArrow=classic;html=1;rounded=0;" edge="1" parent="1">
          <mxGeometry width="50" height="50" relative="1" as="geometry">
            <mxPoint x="845" y="260" as="sourcePoint" />
            <mxPoint x="1124" y="378" as="targetPoint" />
          </mxGeometry>
        </mxCell>
        <mxCell id="8W87F8Ofjh_P7PELW41l-33" value="喜欢" style="edgeLabel;html=1;align=center;verticalAlign=middle;resizable=0;points=[];" vertex="1" connectable="0" parent="8W87F8Ofjh_P7PELW41l-32">
          <mxGeometry x="-0.3667" y="-2" relative="1" as="geometry">
            <mxPoint as="offset" />
          </mxGeometry>
        </mxCell>
        <mxCell id="8W87F8Ofjh_P7PELW41l-34" value="项目a" style="rounded=0;whiteSpace=wrap;html=1;" vertex="1" parent="1">
          <mxGeometry x="788" y="391" width="87" height="53" as="geometry" />
        </mxCell>
        <mxCell id="8W87F8Ofjh_P7PELW41l-35" value="项目b" style="rounded=0;whiteSpace=wrap;html=1;" vertex="1" parent="1">
          <mxGeometry x="938" y="391" width="87" height="53" as="geometry" />
        </mxCell>
        <mxCell id="8W87F8Ofjh_P7PELW41l-36" value="项目c" style="rounded=0;whiteSpace=wrap;html=1;" vertex="1" parent="1">
          <mxGeometry x="1095" y="391" width="87" height="53" as="geometry" />
        </mxCell>
        <mxCell id="8W87F8Ofjh_P7PELW41l-37" value="" style="endArrow=classic;html=1;rounded=0;" edge="1" parent="1">
          <mxGeometry width="50" height="50" relative="1" as="geometry">
            <mxPoint x="1133" y="258" as="sourcePoint" />
            <mxPoint x="843.5" y="373" as="targetPoint" />
          </mxGeometry>
        </mxCell>
        <mxCell id="8W87F8Ofjh_P7PELW41l-38" value="喜欢" style="edgeLabel;html=1;align=center;verticalAlign=middle;resizable=0;points=[];" vertex="1" connectable="0" parent="8W87F8Ofjh_P7PELW41l-37">
          <mxGeometry x="-0.1052" y="-3" relative="1" as="geometry">
            <mxPoint x="34" y="-12" as="offset" />
          </mxGeometry>
        </mxCell>
        <mxCell id="8W87F8Ofjh_P7PELW41l-39" value="" style="endArrow=classic;html=1;rounded=0;" edge="1" parent="1">
          <mxGeometry width="50" height="50" relative="1" as="geometry">
            <mxPoint x="1138" y="259" as="sourcePoint" />
            <mxPoint x="1138" y="379" as="targetPoint" />
          </mxGeometry>
        </mxCell>
        <mxCell id="8W87F8Ofjh_P7PELW41l-40" value="喜欢" style="edgeLabel;html=1;align=center;verticalAlign=middle;resizable=0;points=[];" vertex="1" connectable="0" parent="8W87F8Ofjh_P7PELW41l-39">
          <mxGeometry x="-0.35" y="4" relative="1" as="geometry">
            <mxPoint as="offset" />
          </mxGeometry>
        </mxCell>
        <mxCell id="8W87F8Ofjh_P7PELW41l-41" value="" style="endArrow=classic;html=1;rounded=0;" edge="1" parent="1">
          <mxGeometry width="50" height="50" relative="1" as="geometry">
            <mxPoint x="981" y="260" as="sourcePoint" />
            <mxPoint x="981" y="380" as="targetPoint" />
          </mxGeometry>
        </mxCell>
        <mxCell id="8W87F8Ofjh_P7PELW41l-42" value="喜欢" style="edgeLabel;html=1;align=center;verticalAlign=middle;resizable=0;points=[];" vertex="1" connectable="0" parent="8W87F8Ofjh_P7PELW41l-41">
          <mxGeometry x="-0.3667" y="-2" relative="1" as="geometry">
            <mxPoint as="offset" />
          </mxGeometry>
        </mxCell>
        <mxCell id="8W87F8Ofjh_P7PELW41l-43" value="" style="endArrow=classic;html=1;rounded=0;dashed=1;" edge="1" parent="1">
          <mxGeometry width="50" height="50" relative="1" as="geometry">
            <mxPoint x="827" y="373" as="sourcePoint" />
            <mxPoint x="827" y="259" as="targetPoint" />
          </mxGeometry>
        </mxCell>
        <mxCell id="8W87F8Ofjh_P7PELW41l-44" value="推荐" style="edgeLabel;html=1;align=center;verticalAlign=middle;resizable=0;points=[];" vertex="1" connectable="0" parent="8W87F8Ofjh_P7PELW41l-43">
          <mxGeometry x="-0.3667" y="-2" relative="1" as="geometry">
            <mxPoint x="-2" y="-37" as="offset" />
          </mxGeometry>
        </mxCell>
        <mxCell id="8W87F8Ofjh_P7PELW41l-49" value="" style="rounded=0;whiteSpace=wrap;html=1;strokeWidth=1.5;" vertex="1" parent="1">
          <mxGeometry x="225" y="604" width="638" height="393" as="geometry" />
        </mxCell>
        <mxCell id="8W87F8Ofjh_P7PELW41l-50" value="" style="rounded=0;whiteSpace=wrap;html=1;" vertex="1" parent="1">
          <mxGeometry x="268" y="626" width="128" height="149" as="geometry" />
        </mxCell>
        <mxCell id="8W87F8Ofjh_P7PELW41l-54" value="&lt;font style=&quot;font-size: 18px;&quot;&gt;Spark Core&lt;/font&gt;" style="rounded=0;whiteSpace=wrap;html=1;strokeWidth=1.5;" vertex="1" parent="1">
          <mxGeometry x="267" y="795" width="557" height="33" as="geometry" />
        </mxCell>
        <mxCell id="8W87F8Ofjh_P7PELW41l-55" value="" style="rounded=0;whiteSpace=wrap;html=1;" vertex="1" parent="1">
          <mxGeometry x="410" y="626" width="128" height="149" as="geometry" />
        </mxCell>
        <mxCell id="8W87F8Ofjh_P7PELW41l-56" value="" style="rounded=0;whiteSpace=wrap;html=1;" vertex="1" parent="1">
          <mxGeometry x="552" y="626" width="128" height="149" as="geometry" />
        </mxCell>
        <mxCell id="8W87F8Ofjh_P7PELW41l-57" value="&lt;font style=&quot;font-size: 18px;&quot;&gt;Spark MLlib&lt;br&gt;机器学习&lt;/font&gt;" style="rounded=0;whiteSpace=wrap;html=1;strokeWidth=1.5;" vertex="1" parent="1">
          <mxGeometry x="694" y="626" width="128" height="149" as="geometry" />
        </mxCell>
        <mxCell id="8W87F8Ofjh_P7PELW41l-59" value="&lt;font style=&quot;font-size: 18px;&quot;&gt;Spark SQL&lt;br&gt;结构化数据&lt;/font&gt;" style="rounded=0;whiteSpace=wrap;html=1;strokeWidth=1.5;" vertex="1" parent="1">
          <mxGeometry x="268" y="626" width="128" height="149" as="geometry" />
        </mxCell>
        <mxCell id="8W87F8Ofjh_P7PELW41l-60" value="&lt;font style=&quot;font-size: 18px;&quot;&gt;Graph X&lt;br&gt;图形计算&lt;/font&gt;" style="rounded=0;whiteSpace=wrap;html=1;strokeWidth=1.5;" vertex="1" parent="1">
          <mxGeometry x="410" y="626" width="128" height="149" as="geometry" />
        </mxCell>
        <mxCell id="8W87F8Ofjh_P7PELW41l-61" value="&lt;font style=&quot;font-size: 18px;&quot;&gt;Spark Streaming&lt;br&gt;流式计算&lt;/font&gt;" style="rounded=0;whiteSpace=wrap;html=1;strokeWidth=1.5;" vertex="1" parent="1">
          <mxGeometry x="552" y="626" width="128" height="149" as="geometry" />
        </mxCell>
        <mxCell id="8W87F8Ofjh_P7PELW41l-62" value="&lt;font style=&quot;font-size: 18px;&quot;&gt;Standalong 独立调度器&lt;/font&gt;" style="rounded=0;whiteSpace=wrap;html=1;strokeWidth=1.5;" vertex="1" parent="1">
          <mxGeometry x="267" y="860" width="187" height="65" as="geometry" />
        </mxCell>
        <mxCell id="8W87F8Ofjh_P7PELW41l-63" value="&lt;font style=&quot;font-size: 18px;&quot;&gt;YARN&lt;/font&gt;" style="rounded=0;whiteSpace=wrap;html=1;strokeWidth=1.5;" vertex="1" parent="1">
          <mxGeometry x="490" y="860" width="141" height="65" as="geometry" />
        </mxCell>
        <mxCell id="8W87F8Ofjh_P7PELW41l-64" value="&lt;font style=&quot;font-size: 18px;&quot;&gt;Mesos&lt;/font&gt;" style="rounded=0;whiteSpace=wrap;html=1;strokeWidth=1.5;" vertex="1" parent="1">
          <mxGeometry x="667" y="860" width="141" height="65" as="geometry" />
        </mxCell>
        <mxCell id="8W87F8Ofjh_P7PELW41l-71" style="edgeStyle=orthogonalEdgeStyle;rounded=0;orthogonalLoop=1;jettySize=auto;html=1;exitX=1;exitY=0.5;exitDx=0;exitDy=0;entryX=0;entryY=0.5;entryDx=0;entryDy=0;fontSize=18;" edge="1" parent="1" source="8W87F8Ofjh_P7PELW41l-66" target="8W87F8Ofjh_P7PELW41l-67">
          <mxGeometry relative="1" as="geometry" />
        </mxCell>
        <mxCell id="8W87F8Ofjh_P7PELW41l-66" value="Client" style="rounded=0;whiteSpace=wrap;html=1;strokeWidth=1.5;fontSize=18;" vertex="1" parent="1">
          <mxGeometry x="996.5" y="638" width="122" height="87" as="geometry" />
        </mxCell>
        <mxCell id="8W87F8Ofjh_P7PELW41l-74" style="edgeStyle=orthogonalEdgeStyle;rounded=0;orthogonalLoop=1;jettySize=auto;html=1;exitX=0.5;exitY=1;exitDx=0;exitDy=0;entryX=0.5;entryY=0;entryDx=0;entryDy=0;fontSize=18;" edge="1" parent="1" source="8W87F8Ofjh_P7PELW41l-67" target="8W87F8Ofjh_P7PELW41l-70">
          <mxGeometry relative="1" as="geometry" />
        </mxCell>
        <mxCell id="8W87F8Ofjh_P7PELW41l-67" value="Driver" style="rounded=0;whiteSpace=wrap;html=1;strokeWidth=1.5;fontSize=18;" vertex="1" parent="1">
          <mxGeometry x="1224" y="638" width="122" height="87" as="geometry" />
        </mxCell>
        <mxCell id="8W87F8Ofjh_P7PELW41l-72" style="edgeStyle=orthogonalEdgeStyle;rounded=0;orthogonalLoop=1;jettySize=auto;html=1;exitX=0.5;exitY=0;exitDx=0;exitDy=0;fontSize=18;" edge="1" parent="1" source="8W87F8Ofjh_P7PELW41l-68" target="8W87F8Ofjh_P7PELW41l-67">
          <mxGeometry relative="1" as="geometry" />
        </mxCell>
        <mxCell id="8W87F8Ofjh_P7PELW41l-68" value="Exector" style="rounded=0;whiteSpace=wrap;html=1;strokeWidth=1.5;fontSize=18;" vertex="1" parent="1">
          <mxGeometry x="1440" y="623.5" width="204" height="116" as="geometry" />
        </mxCell>
        <mxCell id="8W87F8Ofjh_P7PELW41l-73" style="edgeStyle=orthogonalEdgeStyle;rounded=0;orthogonalLoop=1;jettySize=auto;html=1;exitX=0.5;exitY=0;exitDx=0;exitDy=0;entryX=1;entryY=0.5;entryDx=0;entryDy=0;fontSize=18;" edge="1" parent="1" source="8W87F8Ofjh_P7PELW41l-69" target="8W87F8Ofjh_P7PELW41l-67">
          <mxGeometry relative="1" as="geometry">
            <Array as="points">
              <mxPoint x="1547" y="766" />
              <mxPoint x="1393" y="766" />
              <mxPoint x="1393" y="682" />
            </Array>
          </mxGeometry>
        </mxCell>
        <mxCell id="8W87F8Ofjh_P7PELW41l-69" value="Exector" style="rounded=0;whiteSpace=wrap;html=1;strokeWidth=1.5;fontSize=18;" vertex="1" parent="1">
          <mxGeometry x="1440" y="795" width="204" height="116" as="geometry" />
        </mxCell>
        <mxCell id="8W87F8Ofjh_P7PELW41l-70" value="Cluster&lt;br&gt;Manager" style="rounded=0;whiteSpace=wrap;html=1;strokeWidth=1.5;fontSize=18;" vertex="1" parent="1">
          <mxGeometry x="1224" y="807" width="122" height="87" as="geometry" />
        </mxCell>
        <mxCell id="8W87F8Ofjh_P7PELW41l-76" value="" style="endArrow=classic;html=1;rounded=0;fontSize=18;entryX=0.25;entryY=1;entryDx=0;entryDy=0;startArrow=none;" edge="1" parent="1" target="8W87F8Ofjh_P7PELW41l-68">
          <mxGeometry width="50" height="50" relative="1" as="geometry">
            <mxPoint x="1347" y="806" as="sourcePoint" />
            <mxPoint x="1395" y="757" as="targetPoint" />
          </mxGeometry>
        </mxCell>
        <mxCell id="8W87F8Ofjh_P7PELW41l-77" value="" style="endArrow=classic;html=1;rounded=0;fontSize=18;entryX=0;entryY=0.5;entryDx=0;entryDy=0;exitX=1;exitY=0;exitDx=0;exitDy=0;" edge="1" parent="1" source="8W87F8Ofjh_P7PELW41l-70" target="8W87F8Ofjh_P7PELW41l-69">
          <mxGeometry width="50" height="50" relative="1" as="geometry">
            <mxPoint x="1346" y="825" as="sourcePoint" />
            <mxPoint x="1492" y="758" as="targetPoint" />
          </mxGeometry>
        </mxCell>
        <mxCell id="8W87F8Ofjh_P7PELW41l-78" value="&lt;font style=&quot;font-size: 14px;&quot;&gt;反向注册&lt;/font&gt;" style="text;html=1;strokeColor=none;fillColor=none;align=center;verticalAlign=middle;whiteSpace=wrap;rounded=0;fontSize=18;" vertex="1" parent="1">
          <mxGeometry x="1363" y="638" width="60" height="30" as="geometry" />
        </mxCell>
        <mxCell id="8W87F8Ofjh_P7PELW41l-79" value="任务提交" style="text;html=1;strokeColor=none;fillColor=none;align=center;verticalAlign=middle;whiteSpace=wrap;rounded=0;fontSize=14;" vertex="1" parent="1">
          <mxGeometry x="1141" y="658" width="60" height="30" as="geometry" />
        </mxCell>
        <mxCell id="8W87F8Ofjh_P7PELW41l-80" value="Driver运行" style="text;html=1;strokeColor=none;fillColor=none;align=center;verticalAlign=middle;whiteSpace=wrap;rounded=0;fontSize=14;" vertex="1" parent="1">
          <mxGeometry x="1247" y="608" width="81" height="30" as="geometry" />
        </mxCell>
        <mxCell id="8W87F8Ofjh_P7PELW41l-81" value="注册应用程序" style="text;html=1;strokeColor=none;fillColor=none;align=center;verticalAlign=middle;whiteSpace=wrap;rounded=0;fontSize=14;" vertex="1" parent="1">
          <mxGeometry x="1236.5" y="747" width="97" height="30" as="geometry" />
        </mxCell>
        <mxCell id="8W87F8Ofjh_P7PELW41l-84" value="启动Executor" style="text;html=1;strokeColor=none;fillColor=none;align=center;verticalAlign=middle;whiteSpace=wrap;rounded=0;fontSize=14;" vertex="1" parent="1">
          <mxGeometry x="1340" y="791" width="113" height="30" as="geometry" />
        </mxCell>
        <mxCell id="8W87F8Ofjh_P7PELW41l-85" value="&lt;font style=&quot;font-size: 18px;&quot;&gt;HDFS&amp;nbsp; &amp;nbsp; &amp;nbsp; &amp;nbsp; &amp;nbsp; HBASE&amp;nbsp; &amp;nbsp; &amp;nbsp; &amp;nbsp; Cassandra&amp;nbsp; &amp;nbsp; &amp;nbsp;MongoDB&amp;nbsp; &amp;nbsp; etc&lt;/font&gt;" style="rounded=0;whiteSpace=wrap;html=1;strokeWidth=1.5;" vertex="1" parent="1">
          <mxGeometry x="267" y="946" width="557" height="33" as="geometry" />
        </mxCell>
        <mxCell id="8W87F8Ofjh_P7PELW41l-88" value="" style="rounded=1;whiteSpace=wrap;html=1;strokeWidth=1.5;fontSize=14;dashed=1;" vertex="1" parent="1">
          <mxGeometry x="1815" y="539" width="213" height="168" as="geometry" />
        </mxCell>
        <mxCell id="8W87F8Ofjh_P7PELW41l-89" value="" style="rounded=1;whiteSpace=wrap;html=1;strokeWidth=1.5;fontSize=14;dashed=1;" vertex="1" parent="1">
          <mxGeometry x="1815" y="722" width="396" height="237" as="geometry" />
        </mxCell>
        <mxCell id="8W87F8Ofjh_P7PELW41l-95" value="" style="group" vertex="1" connectable="0" parent="1">
          <mxGeometry x="1934" y="555" width="79" height="133" as="geometry" />
        </mxCell>
        <mxCell id="8W87F8Ofjh_P7PELW41l-102" value="" style="group" vertex="1" connectable="0" parent="8W87F8Ofjh_P7PELW41l-95">
          <mxGeometry width="79" height="133" as="geometry" />
        </mxCell>
        <mxCell id="8W87F8Ofjh_P7PELW41l-90" value="" style="rounded=1;whiteSpace=wrap;html=1;strokeWidth=1.5;fontSize=14;movable=1;resizable=1;rotatable=1;deletable=1;editable=1;locked=0;connectable=1;" vertex="1" parent="8W87F8Ofjh_P7PELW41l-102">
          <mxGeometry width="79" height="133" as="geometry" />
        </mxCell>
        <mxCell id="8W87F8Ofjh_P7PELW41l-91" value="" style="rounded=0;whiteSpace=wrap;html=1;strokeWidth=1.5;fontSize=14;movable=1;resizable=1;rotatable=1;deletable=1;editable=1;locked=0;connectable=1;" vertex="1" parent="8W87F8Ofjh_P7PELW41l-102">
          <mxGeometry x="9.875" y="9.172413793103448" width="59.25" height="30.956896551724142" as="geometry" />
        </mxCell>
        <mxCell id="8W87F8Ofjh_P7PELW41l-162" style="edgeStyle=none;rounded=0;orthogonalLoop=1;jettySize=auto;html=1;exitX=1;exitY=0.5;exitDx=0;exitDy=0;fontSize=14;" edge="1" parent="8W87F8Ofjh_P7PELW41l-102" source="8W87F8Ofjh_P7PELW41l-92">
          <mxGeometry relative="1" as="geometry">
            <mxPoint x="179" y="27" as="targetPoint" />
          </mxGeometry>
        </mxCell>
        <mxCell id="8W87F8Ofjh_P7PELW41l-92" value="" style="rounded=0;whiteSpace=wrap;html=1;strokeWidth=1.5;fontSize=14;movable=1;resizable=1;rotatable=1;deletable=1;editable=1;locked=0;connectable=1;" vertex="1" parent="8W87F8Ofjh_P7PELW41l-102">
          <mxGeometry x="9.875" y="51.021551724137936" width="59.25" height="30.956896551724142" as="geometry" />
        </mxCell>
        <mxCell id="8W87F8Ofjh_P7PELW41l-93" value="" style="rounded=0;whiteSpace=wrap;html=1;strokeWidth=1.5;fontSize=14;movable=1;resizable=1;rotatable=1;deletable=1;editable=1;locked=0;connectable=1;" vertex="1" parent="8W87F8Ofjh_P7PELW41l-102">
          <mxGeometry x="9.875" y="90.57758620689656" width="59.25" height="30.956896551724142" as="geometry" />
        </mxCell>
        <mxCell id="8W87F8Ofjh_P7PELW41l-103" value="" style="group" vertex="1" connectable="0" parent="1">
          <mxGeometry x="2107" y="555" width="79" height="133" as="geometry" />
        </mxCell>
        <mxCell id="8W87F8Ofjh_P7PELW41l-104" value="" style="group" vertex="1" connectable="0" parent="8W87F8Ofjh_P7PELW41l-103">
          <mxGeometry width="79" height="133" as="geometry" />
        </mxCell>
        <mxCell id="8W87F8Ofjh_P7PELW41l-105" value="" style="rounded=1;whiteSpace=wrap;html=1;strokeWidth=1.5;fontSize=14;movable=1;resizable=1;rotatable=1;deletable=1;editable=1;locked=0;connectable=1;" vertex="1" parent="8W87F8Ofjh_P7PELW41l-104">
          <mxGeometry width="79" height="133" as="geometry" />
        </mxCell>
        <mxCell id="8W87F8Ofjh_P7PELW41l-106" value="" style="rounded=0;whiteSpace=wrap;html=1;strokeWidth=1.5;fontSize=14;movable=1;resizable=1;rotatable=1;deletable=1;editable=1;locked=0;connectable=1;" vertex="1" parent="8W87F8Ofjh_P7PELW41l-104">
          <mxGeometry x="9.875" y="9.172413793103448" width="59.25" height="30.956896551724142" as="geometry" />
        </mxCell>
        <mxCell id="8W87F8Ofjh_P7PELW41l-107" value="" style="rounded=0;whiteSpace=wrap;html=1;strokeWidth=1.5;fontSize=14;movable=1;resizable=1;rotatable=1;deletable=1;editable=1;locked=0;connectable=1;" vertex="1" parent="8W87F8Ofjh_P7PELW41l-104">
          <mxGeometry x="9.875" y="51.021551724137936" width="59.25" height="30.956896551724142" as="geometry" />
        </mxCell>
        <mxCell id="8W87F8Ofjh_P7PELW41l-108" value="" style="rounded=0;whiteSpace=wrap;html=1;strokeWidth=1.5;fontSize=14;movable=1;resizable=1;rotatable=1;deletable=1;editable=1;locked=0;connectable=1;" vertex="1" parent="8W87F8Ofjh_P7PELW41l-104">
          <mxGeometry x="9.875" y="90.57758620689656" width="59.25" height="30.956896551724142" as="geometry" />
        </mxCell>
        <mxCell id="8W87F8Ofjh_P7PELW41l-109" value="" style="group" vertex="1" connectable="0" parent="1">
          <mxGeometry x="2356" y="671" width="79" height="133" as="geometry" />
        </mxCell>
        <mxCell id="8W87F8Ofjh_P7PELW41l-110" value="" style="rounded=1;whiteSpace=wrap;html=1;strokeWidth=1.5;fontSize=14;movable=1;resizable=1;rotatable=1;deletable=1;editable=1;locked=0;connectable=1;" vertex="1" parent="8W87F8Ofjh_P7PELW41l-109">
          <mxGeometry width="79" height="133" as="geometry" />
        </mxCell>
        <mxCell id="8W87F8Ofjh_P7PELW41l-111" value="" style="rounded=0;whiteSpace=wrap;html=1;strokeWidth=1.5;fontSize=14;movable=1;resizable=1;rotatable=1;deletable=1;editable=1;locked=0;connectable=1;" vertex="1" parent="8W87F8Ofjh_P7PELW41l-109">
          <mxGeometry x="9.875" y="9.172413793103448" width="59.25" height="30.956896551724142" as="geometry" />
        </mxCell>
        <mxCell id="8W87F8Ofjh_P7PELW41l-112" value="" style="rounded=0;whiteSpace=wrap;html=1;strokeWidth=1.5;fontSize=14;movable=1;resizable=1;rotatable=1;deletable=1;editable=1;locked=0;connectable=1;" vertex="1" parent="8W87F8Ofjh_P7PELW41l-109">
          <mxGeometry x="9.875" y="51.021551724137936" width="59.25" height="30.956896551724142" as="geometry" />
        </mxCell>
        <mxCell id="8W87F8Ofjh_P7PELW41l-113" value="" style="rounded=0;whiteSpace=wrap;html=1;strokeWidth=1.5;fontSize=14;movable=1;resizable=1;rotatable=1;deletable=1;editable=1;locked=0;connectable=1;" vertex="1" parent="8W87F8Ofjh_P7PELW41l-109">
          <mxGeometry x="9.875" y="90.57758620689656" width="59.25" height="30.956896551724142" as="geometry" />
        </mxCell>
        <mxCell id="8W87F8Ofjh_P7PELW41l-129" value="" style="group" vertex="1" connectable="0" parent="1">
          <mxGeometry x="1838" y="732" width="79" height="96" as="geometry" />
        </mxCell>
        <mxCell id="8W87F8Ofjh_P7PELW41l-115" value="" style="rounded=1;whiteSpace=wrap;html=1;strokeWidth=1.5;fontSize=14;movable=1;resizable=1;rotatable=1;deletable=1;editable=1;locked=0;connectable=1;" vertex="1" parent="8W87F8Ofjh_P7PELW41l-129">
          <mxGeometry width="79" height="96" as="geometry" />
        </mxCell>
        <mxCell id="8W87F8Ofjh_P7PELW41l-127" value="" style="rounded=0;whiteSpace=wrap;html=1;strokeWidth=1.5;fontSize=14;movable=1;resizable=1;rotatable=1;deletable=1;editable=1;locked=0;connectable=1;" vertex="1" parent="8W87F8Ofjh_P7PELW41l-129">
          <mxGeometry x="9.875" y="12.002413793103528" width="59.25" height="30.956896551724142" as="geometry" />
        </mxCell>
        <mxCell id="8W87F8Ofjh_P7PELW41l-128" value="" style="rounded=0;whiteSpace=wrap;html=1;strokeWidth=1.5;fontSize=14;movable=1;resizable=1;rotatable=1;deletable=1;editable=1;locked=0;connectable=1;" vertex="1" parent="8W87F8Ofjh_P7PELW41l-129">
          <mxGeometry x="9.875" y="53.04241379310349" width="59.25" height="30.956896551724142" as="geometry" />
        </mxCell>
        <mxCell id="8W87F8Ofjh_P7PELW41l-139" value="" style="group" vertex="1" connectable="0" parent="1">
          <mxGeometry x="1886" y="763.5" width="88" height="96" as="geometry" />
        </mxCell>
        <mxCell id="8W87F8Ofjh_P7PELW41l-143" value="" style="group" vertex="1" connectable="0" parent="8W87F8Ofjh_P7PELW41l-139">
          <mxGeometry x="86" y="-32" width="79" height="96" as="geometry" />
        </mxCell>
        <mxCell id="8W87F8Ofjh_P7PELW41l-140" value="" style="rounded=1;whiteSpace=wrap;html=1;strokeWidth=1.5;fontSize=14;movable=1;resizable=1;rotatable=1;deletable=1;editable=1;locked=0;connectable=1;" vertex="1" parent="8W87F8Ofjh_P7PELW41l-143">
          <mxGeometry width="79" height="96" as="geometry" />
        </mxCell>
        <mxCell id="8W87F8Ofjh_P7PELW41l-141" value="" style="rounded=0;whiteSpace=wrap;html=1;strokeWidth=1.5;fontSize=14;movable=1;resizable=1;rotatable=1;deletable=1;editable=1;locked=0;connectable=1;" vertex="1" parent="8W87F8Ofjh_P7PELW41l-143">
          <mxGeometry x="9.875" y="12.002413793103528" width="59.25" height="30.956896551724142" as="geometry" />
        </mxCell>
        <mxCell id="8W87F8Ofjh_P7PELW41l-142" value="" style="rounded=0;whiteSpace=wrap;html=1;strokeWidth=1.5;fontSize=14;movable=1;resizable=1;rotatable=1;deletable=1;editable=1;locked=0;connectable=1;" vertex="1" parent="8W87F8Ofjh_P7PELW41l-143">
          <mxGeometry x="9.875" y="53.04241379310349" width="59.25" height="30.956896551724142" as="geometry" />
        </mxCell>
        <mxCell id="8W87F8Ofjh_P7PELW41l-203" value="map" style="text;html=1;strokeColor=none;fillColor=none;align=center;verticalAlign=middle;whiteSpace=wrap;rounded=0;fontSize=15;" vertex="1" parent="8W87F8Ofjh_P7PELW41l-139">
          <mxGeometry x="26" y="38.5" width="60" height="30" as="geometry" />
        </mxCell>
        <mxCell id="8W87F8Ofjh_P7PELW41l-144" value="" style="group" vertex="1" connectable="0" parent="1">
          <mxGeometry x="1973.5" y="850" width="79" height="96" as="geometry" />
        </mxCell>
        <mxCell id="8W87F8Ofjh_P7PELW41l-145" value="" style="rounded=1;whiteSpace=wrap;html=1;strokeWidth=1.5;fontSize=14;movable=1;resizable=1;rotatable=1;deletable=1;editable=1;locked=0;connectable=1;" vertex="1" parent="8W87F8Ofjh_P7PELW41l-144">
          <mxGeometry width="79" height="96" as="geometry" />
        </mxCell>
        <mxCell id="8W87F8Ofjh_P7PELW41l-146" value="" style="rounded=0;whiteSpace=wrap;html=1;strokeWidth=1.5;fontSize=14;movable=1;resizable=1;rotatable=1;deletable=1;editable=1;locked=0;connectable=1;" vertex="1" parent="8W87F8Ofjh_P7PELW41l-144">
          <mxGeometry x="9.875" y="12.002413793103528" width="59.25" height="30.956896551724142" as="geometry" />
        </mxCell>
        <mxCell id="8W87F8Ofjh_P7PELW41l-147" value="" style="rounded=0;whiteSpace=wrap;html=1;strokeWidth=1.5;fontSize=14;movable=1;resizable=1;rotatable=1;deletable=1;editable=1;locked=0;connectable=1;" vertex="1" parent="8W87F8Ofjh_P7PELW41l-144">
          <mxGeometry x="9.875" y="53.04241379310349" width="59.25" height="30.956896551724142" as="geometry" />
        </mxCell>
        <mxCell id="8W87F8Ofjh_P7PELW41l-148" value="" style="rounded=1;whiteSpace=wrap;html=1;strokeWidth=1.5;fontSize=14;movable=1;resizable=1;rotatable=1;deletable=1;editable=1;locked=0;connectable=1;" vertex="1" parent="1">
          <mxGeometry x="2107" y="734" width="79" height="211" as="geometry" />
        </mxCell>
        <mxCell id="8W87F8Ofjh_P7PELW41l-176" style="edgeStyle=none;rounded=0;orthogonalLoop=1;jettySize=auto;html=1;exitX=1;exitY=0.5;exitDx=0;exitDy=0;entryX=0.076;entryY=0.195;entryDx=0;entryDy=0;entryPerimeter=0;fontSize=18;" edge="1" parent="1" source="8W87F8Ofjh_P7PELW41l-155" target="8W87F8Ofjh_P7PELW41l-110">
          <mxGeometry relative="1" as="geometry" />
        </mxCell>
        <mxCell id="8W87F8Ofjh_P7PELW41l-180" style="edgeStyle=none;rounded=0;orthogonalLoop=1;jettySize=auto;html=1;exitX=1;exitY=0.5;exitDx=0;exitDy=0;entryX=0;entryY=0.5;entryDx=0;entryDy=0;fontSize=18;" edge="1" parent="1" source="8W87F8Ofjh_P7PELW41l-155" target="8W87F8Ofjh_P7PELW41l-112">
          <mxGeometry relative="1" as="geometry" />
        </mxCell>
        <mxCell id="8W87F8Ofjh_P7PELW41l-181" style="edgeStyle=none;rounded=0;orthogonalLoop=1;jettySize=auto;html=1;exitX=1;exitY=0.5;exitDx=0;exitDy=0;entryX=0;entryY=0.5;entryDx=0;entryDy=0;fontSize=18;" edge="1" parent="1" source="8W87F8Ofjh_P7PELW41l-155" target="8W87F8Ofjh_P7PELW41l-113">
          <mxGeometry relative="1" as="geometry" />
        </mxCell>
        <mxCell id="8W87F8Ofjh_P7PELW41l-155" value="" style="rounded=0;whiteSpace=wrap;html=1;strokeWidth=1.5;fontSize=14;movable=1;resizable=1;rotatable=1;deletable=1;editable=1;locked=0;connectable=1;" vertex="1" parent="1">
          <mxGeometry x="2116.875" y="753.0024137931035" width="59.25" height="30.956896551724142" as="geometry" />
        </mxCell>
        <mxCell id="8W87F8Ofjh_P7PELW41l-177" style="edgeStyle=none;rounded=0;orthogonalLoop=1;jettySize=auto;html=1;exitX=1;exitY=0.5;exitDx=0;exitDy=0;fontSize=18;" edge="1" parent="1" source="8W87F8Ofjh_P7PELW41l-156">
          <mxGeometry relative="1" as="geometry">
            <mxPoint x="2364" y="698" as="targetPoint" />
          </mxGeometry>
        </mxCell>
        <mxCell id="8W87F8Ofjh_P7PELW41l-182" style="edgeStyle=none;rounded=0;orthogonalLoop=1;jettySize=auto;html=1;exitX=1;exitY=0.5;exitDx=0;exitDy=0;entryX=0;entryY=0.5;entryDx=0;entryDy=0;fontSize=18;" edge="1" parent="1" source="8W87F8Ofjh_P7PELW41l-156" target="8W87F8Ofjh_P7PELW41l-112">
          <mxGeometry relative="1" as="geometry" />
        </mxCell>
        <mxCell id="8W87F8Ofjh_P7PELW41l-183" style="edgeStyle=none;rounded=0;orthogonalLoop=1;jettySize=auto;html=1;exitX=1;exitY=0.5;exitDx=0;exitDy=0;fontSize=18;" edge="1" parent="1" source="8W87F8Ofjh_P7PELW41l-156">
          <mxGeometry relative="1" as="geometry">
            <mxPoint x="2365" y="777" as="targetPoint" />
          </mxGeometry>
        </mxCell>
        <mxCell id="8W87F8Ofjh_P7PELW41l-156" value="" style="rounded=0;whiteSpace=wrap;html=1;strokeWidth=1.5;fontSize=14;movable=1;resizable=1;rotatable=1;deletable=1;editable=1;locked=0;connectable=1;" vertex="1" parent="1">
          <mxGeometry x="2116.875" y="799.0024137931035" width="59.25" height="30.956896551724142" as="geometry" />
        </mxCell>
        <mxCell id="8W87F8Ofjh_P7PELW41l-178" style="edgeStyle=none;rounded=0;orthogonalLoop=1;jettySize=auto;html=1;exitX=1;exitY=0.5;exitDx=0;exitDy=0;entryX=0;entryY=0.5;entryDx=0;entryDy=0;fontSize=18;" edge="1" parent="1" source="8W87F8Ofjh_P7PELW41l-157" target="8W87F8Ofjh_P7PELW41l-111">
          <mxGeometry relative="1" as="geometry" />
        </mxCell>
        <mxCell id="8W87F8Ofjh_P7PELW41l-184" style="edgeStyle=none;rounded=0;orthogonalLoop=1;jettySize=auto;html=1;exitX=1;exitY=0.5;exitDx=0;exitDy=0;fontSize=18;" edge="1" parent="1" source="8W87F8Ofjh_P7PELW41l-157">
          <mxGeometry relative="1" as="geometry">
            <mxPoint x="2364" y="740" as="targetPoint" />
          </mxGeometry>
        </mxCell>
        <mxCell id="8W87F8Ofjh_P7PELW41l-185" style="edgeStyle=none;rounded=0;orthogonalLoop=1;jettySize=auto;html=1;exitX=1;exitY=0.5;exitDx=0;exitDy=0;entryX=0;entryY=0.5;entryDx=0;entryDy=0;fontSize=18;" edge="1" parent="1" source="8W87F8Ofjh_P7PELW41l-157" target="8W87F8Ofjh_P7PELW41l-113">
          <mxGeometry relative="1" as="geometry" />
        </mxCell>
        <mxCell id="8W87F8Ofjh_P7PELW41l-157" value="" style="rounded=0;whiteSpace=wrap;html=1;strokeWidth=1.5;fontSize=14;movable=1;resizable=1;rotatable=1;deletable=1;editable=1;locked=0;connectable=1;" vertex="1" parent="1">
          <mxGeometry x="2116.875" y="850.0024137931035" width="59.25" height="30.956896551724142" as="geometry" />
        </mxCell>
        <mxCell id="8W87F8Ofjh_P7PELW41l-179" style="edgeStyle=none;rounded=0;orthogonalLoop=1;jettySize=auto;html=1;exitX=1;exitY=0.5;exitDx=0;exitDy=0;fontSize=18;" edge="1" parent="1" source="8W87F8Ofjh_P7PELW41l-158">
          <mxGeometry relative="1" as="geometry">
            <mxPoint x="2362" y="699" as="targetPoint" />
          </mxGeometry>
        </mxCell>
        <mxCell id="8W87F8Ofjh_P7PELW41l-186" style="edgeStyle=none;rounded=0;orthogonalLoop=1;jettySize=auto;html=1;exitX=1;exitY=0.5;exitDx=0;exitDy=0;fontSize=18;" edge="1" parent="1" source="8W87F8Ofjh_P7PELW41l-158">
          <mxGeometry relative="1" as="geometry">
            <mxPoint x="2361" y="742" as="targetPoint" />
          </mxGeometry>
        </mxCell>
        <mxCell id="8W87F8Ofjh_P7PELW41l-187" style="edgeStyle=none;rounded=0;orthogonalLoop=1;jettySize=auto;html=1;exitX=1;exitY=0.5;exitDx=0;exitDy=0;fontSize=18;" edge="1" parent="1" source="8W87F8Ofjh_P7PELW41l-158">
          <mxGeometry relative="1" as="geometry">
            <mxPoint x="2364" y="778" as="targetPoint" />
          </mxGeometry>
        </mxCell>
        <mxCell id="8W87F8Ofjh_P7PELW41l-158" value="" style="rounded=0;whiteSpace=wrap;html=1;strokeWidth=1.5;fontSize=14;movable=1;resizable=1;rotatable=1;deletable=1;editable=1;locked=0;connectable=1;" vertex="1" parent="1">
          <mxGeometry x="2116.875" y="898.0024137931035" width="59.25" height="30.956896551724142" as="geometry" />
        </mxCell>
        <mxCell id="8W87F8Ofjh_P7PELW41l-159" style="edgeStyle=orthogonalEdgeStyle;rounded=0;orthogonalLoop=1;jettySize=auto;html=1;exitX=1;exitY=0.5;exitDx=0;exitDy=0;entryX=0;entryY=0.5;entryDx=0;entryDy=0;fontSize=14;" edge="1" parent="1" source="8W87F8Ofjh_P7PELW41l-91" target="8W87F8Ofjh_P7PELW41l-106">
          <mxGeometry relative="1" as="geometry" />
        </mxCell>
        <mxCell id="8W87F8Ofjh_P7PELW41l-160" style="rounded=0;orthogonalLoop=1;jettySize=auto;html=1;exitX=1;exitY=0.5;exitDx=0;exitDy=0;fontSize=14;entryX=0;entryY=0.5;entryDx=0;entryDy=0;" edge="1" parent="1" source="8W87F8Ofjh_P7PELW41l-91" target="8W87F8Ofjh_P7PELW41l-107">
          <mxGeometry relative="1" as="geometry" />
        </mxCell>
        <mxCell id="8W87F8Ofjh_P7PELW41l-161" style="edgeStyle=none;rounded=0;orthogonalLoop=1;jettySize=auto;html=1;entryX=0;entryY=0.5;entryDx=0;entryDy=0;fontSize=14;" edge="1" parent="1" target="8W87F8Ofjh_P7PELW41l-108">
          <mxGeometry relative="1" as="geometry">
            <mxPoint x="2010" y="583" as="sourcePoint" />
          </mxGeometry>
        </mxCell>
        <mxCell id="8W87F8Ofjh_P7PELW41l-163" style="edgeStyle=none;rounded=0;orthogonalLoop=1;jettySize=auto;html=1;exitX=1;exitY=0.5;exitDx=0;exitDy=0;entryX=0;entryY=0.5;entryDx=0;entryDy=0;fontSize=14;" edge="1" parent="1" source="8W87F8Ofjh_P7PELW41l-92" target="8W87F8Ofjh_P7PELW41l-107">
          <mxGeometry relative="1" as="geometry" />
        </mxCell>
        <mxCell id="8W87F8Ofjh_P7PELW41l-164" style="edgeStyle=none;rounded=0;orthogonalLoop=1;jettySize=auto;html=1;exitX=1;exitY=0.5;exitDx=0;exitDy=0;entryX=0;entryY=0.5;entryDx=0;entryDy=0;fontSize=14;" edge="1" parent="1" source="8W87F8Ofjh_P7PELW41l-92" target="8W87F8Ofjh_P7PELW41l-108">
          <mxGeometry relative="1" as="geometry" />
        </mxCell>
        <mxCell id="8W87F8Ofjh_P7PELW41l-166" style="edgeStyle=none;rounded=0;orthogonalLoop=1;jettySize=auto;html=1;exitX=1;exitY=0.5;exitDx=0;exitDy=0;entryX=0;entryY=0.5;entryDx=0;entryDy=0;fontSize=14;" edge="1" parent="1" source="8W87F8Ofjh_P7PELW41l-93" target="8W87F8Ofjh_P7PELW41l-106">
          <mxGeometry relative="1" as="geometry" />
        </mxCell>
        <mxCell id="8W87F8Ofjh_P7PELW41l-167" style="edgeStyle=none;rounded=0;orthogonalLoop=1;jettySize=auto;html=1;exitX=1;exitY=0.5;exitDx=0;exitDy=0;entryX=0;entryY=0.5;entryDx=0;entryDy=0;fontSize=14;" edge="1" parent="1" source="8W87F8Ofjh_P7PELW41l-93" target="8W87F8Ofjh_P7PELW41l-107">
          <mxGeometry relative="1" as="geometry" />
        </mxCell>
        <mxCell id="8W87F8Ofjh_P7PELW41l-168" style="edgeStyle=none;rounded=0;orthogonalLoop=1;jettySize=auto;html=1;exitX=1;exitY=0.5;exitDx=0;exitDy=0;entryX=0;entryY=0.5;entryDx=0;entryDy=0;fontSize=14;" edge="1" parent="1" source="8W87F8Ofjh_P7PELW41l-93" target="8W87F8Ofjh_P7PELW41l-108">
          <mxGeometry relative="1" as="geometry" />
        </mxCell>
        <mxCell id="8W87F8Ofjh_P7PELW41l-170" value="&lt;font style=&quot;font-size: 18px;&quot;&gt;Stage 1&lt;/font&gt;" style="text;html=1;strokeColor=none;fillColor=none;align=center;verticalAlign=middle;whiteSpace=wrap;rounded=0;fontSize=14;" vertex="1" parent="1">
          <mxGeometry x="1829" y="663.25" width="80" height="36.5" as="geometry" />
        </mxCell>
        <mxCell id="8W87F8Ofjh_P7PELW41l-171" value="&lt;font style=&quot;font-size: 18px;&quot;&gt;Stage 2&lt;/font&gt;" style="text;html=1;strokeColor=none;fillColor=none;align=center;verticalAlign=middle;whiteSpace=wrap;rounded=0;fontSize=14;" vertex="1" parent="1">
          <mxGeometry x="1837" y="909.5" width="80" height="36.5" as="geometry" />
        </mxCell>
        <mxCell id="8W87F8Ofjh_P7PELW41l-172" value="&lt;font style=&quot;font-size: 18px;&quot;&gt;Stage 3&lt;/font&gt;" style="text;html=1;strokeColor=none;fillColor=none;align=center;verticalAlign=middle;whiteSpace=wrap;rounded=0;fontSize=14;" vertex="1" parent="1">
          <mxGeometry x="2383" y="915" width="80" height="36.5" as="geometry" />
        </mxCell>
        <mxCell id="8W87F8Ofjh_P7PELW41l-173" style="edgeStyle=none;rounded=0;orthogonalLoop=1;jettySize=auto;html=1;exitX=1;exitY=0.5;exitDx=0;exitDy=0;entryX=0;entryY=0.5;entryDx=0;entryDy=0;fontSize=18;" edge="1" parent="1" source="8W87F8Ofjh_P7PELW41l-106" target="8W87F8Ofjh_P7PELW41l-111">
          <mxGeometry relative="1" as="geometry" />
        </mxCell>
        <mxCell id="8W87F8Ofjh_P7PELW41l-174" style="edgeStyle=none;rounded=0;orthogonalLoop=1;jettySize=auto;html=1;exitX=1;exitY=0.5;exitDx=0;exitDy=0;entryX=0;entryY=0.5;entryDx=0;entryDy=0;fontSize=18;" edge="1" parent="1" source="8W87F8Ofjh_P7PELW41l-107" target="8W87F8Ofjh_P7PELW41l-112">
          <mxGeometry relative="1" as="geometry" />
        </mxCell>
        <mxCell id="8W87F8Ofjh_P7PELW41l-175" style="edgeStyle=none;rounded=0;orthogonalLoop=1;jettySize=auto;html=1;exitX=1;exitY=0.5;exitDx=0;exitDy=0;entryX=0;entryY=0.5;entryDx=0;entryDy=0;fontSize=18;" edge="1" parent="1" source="8W87F8Ofjh_P7PELW41l-108" target="8W87F8Ofjh_P7PELW41l-113">
          <mxGeometry relative="1" as="geometry" />
        </mxCell>
        <mxCell id="8W87F8Ofjh_P7PELW41l-189" value="&lt;font style=&quot;font-size: 15px;&quot;&gt;A:&lt;/font&gt;" style="text;html=1;strokeColor=none;fillColor=none;align=center;verticalAlign=middle;whiteSpace=wrap;rounded=0;fontSize=18;" vertex="1" parent="1">
          <mxGeometry x="1886" y="551" width="60" height="30" as="geometry" />
        </mxCell>
        <mxCell id="8W87F8Ofjh_P7PELW41l-190" value="&lt;font style=&quot;font-size: 15px;&quot;&gt;G:&lt;/font&gt;" style="text;html=1;strokeColor=none;fillColor=none;align=center;verticalAlign=middle;whiteSpace=wrap;rounded=0;fontSize=18;" vertex="1" parent="1">
          <mxGeometry x="2323" y="638" width="60" height="30" as="geometry" />
        </mxCell>
        <mxCell id="8W87F8Ofjh_P7PELW41l-191" value="&lt;font style=&quot;font-size: 15px;&quot;&gt;B:&lt;/font&gt;" style="text;html=1;strokeColor=none;fillColor=none;align=center;verticalAlign=middle;whiteSpace=wrap;rounded=0;fontSize=18;" vertex="1" parent="1">
          <mxGeometry x="2061" y="551" width="60" height="30" as="geometry" />
        </mxCell>
        <mxCell id="8W87F8Ofjh_P7PELW41l-192" value="&lt;font style=&quot;font-size: 15px;&quot;&gt;D:&lt;/font&gt;" style="text;html=1;strokeColor=none;fillColor=none;align=center;verticalAlign=middle;whiteSpace=wrap;rounded=0;fontSize=18;" vertex="1" parent="1">
          <mxGeometry x="1924" y="737" width="60" height="30" as="geometry" />
        </mxCell>
        <mxCell id="8W87F8Ofjh_P7PELW41l-193" value="&lt;font style=&quot;font-size: 15px;&quot;&gt;C:&lt;/font&gt;" style="text;html=1;strokeColor=none;fillColor=none;align=center;verticalAlign=middle;whiteSpace=wrap;rounded=0;fontSize=18;" vertex="1" parent="1">
          <mxGeometry x="1796" y="737" width="60" height="30" as="geometry" />
        </mxCell>
        <mxCell id="8W87F8Ofjh_P7PELW41l-194" value="&lt;font style=&quot;font-size: 15px;&quot;&gt;E:&lt;/font&gt;" style="text;html=1;strokeColor=none;fillColor=none;align=center;verticalAlign=middle;whiteSpace=wrap;rounded=0;fontSize=18;" vertex="1" parent="1">
          <mxGeometry x="1924" y="844" width="60" height="30" as="geometry" />
        </mxCell>
        <mxCell id="8W87F8Ofjh_P7PELW41l-195" value="&lt;font style=&quot;font-size: 15px;&quot;&gt;F:&lt;/font&gt;" style="text;html=1;strokeColor=none;fillColor=none;align=center;verticalAlign=middle;whiteSpace=wrap;rounded=0;fontSize=18;" vertex="1" parent="1">
          <mxGeometry x="2056.88" y="737" width="60" height="30" as="geometry" />
        </mxCell>
        <mxCell id="8W87F8Ofjh_P7PELW41l-196" style="edgeStyle=none;rounded=0;orthogonalLoop=1;jettySize=auto;html=1;exitX=1;exitY=0.5;exitDx=0;exitDy=0;fontSize=15;" edge="1" parent="1" source="8W87F8Ofjh_P7PELW41l-127" target="8W87F8Ofjh_P7PELW41l-141">
          <mxGeometry relative="1" as="geometry" />
        </mxCell>
        <mxCell id="8W87F8Ofjh_P7PELW41l-197" style="edgeStyle=none;rounded=0;orthogonalLoop=1;jettySize=auto;html=1;exitX=1;exitY=0.5;exitDx=0;exitDy=0;fontSize=15;" edge="1" parent="1" source="8W87F8Ofjh_P7PELW41l-128" target="8W87F8Ofjh_P7PELW41l-142">
          <mxGeometry relative="1" as="geometry" />
        </mxCell>
        <mxCell id="8W87F8Ofjh_P7PELW41l-198" style="edgeStyle=none;rounded=0;orthogonalLoop=1;jettySize=auto;html=1;exitX=1;exitY=0.5;exitDx=0;exitDy=0;fontSize=15;" edge="1" parent="1" source="8W87F8Ofjh_P7PELW41l-141" target="8W87F8Ofjh_P7PELW41l-155">
          <mxGeometry relative="1" as="geometry" />
        </mxCell>
        <mxCell id="8W87F8Ofjh_P7PELW41l-199" style="edgeStyle=none;rounded=0;orthogonalLoop=1;jettySize=auto;html=1;exitX=1;exitY=0.5;exitDx=0;exitDy=0;entryX=0;entryY=0.5;entryDx=0;entryDy=0;fontSize=15;" edge="1" parent="1" source="8W87F8Ofjh_P7PELW41l-142" target="8W87F8Ofjh_P7PELW41l-156">
          <mxGeometry relative="1" as="geometry" />
        </mxCell>
        <mxCell id="8W87F8Ofjh_P7PELW41l-200" style="edgeStyle=none;rounded=0;orthogonalLoop=1;jettySize=auto;html=1;exitX=1;exitY=0.5;exitDx=0;exitDy=0;entryX=0;entryY=0.5;entryDx=0;entryDy=0;fontSize=15;" edge="1" parent="1" source="8W87F8Ofjh_P7PELW41l-146" target="8W87F8Ofjh_P7PELW41l-157">
          <mxGeometry relative="1" as="geometry" />
        </mxCell>
        <mxCell id="8W87F8Ofjh_P7PELW41l-201" style="edgeStyle=none;rounded=0;orthogonalLoop=1;jettySize=auto;html=1;exitX=1;exitY=0.5;exitDx=0;exitDy=0;entryX=0;entryY=0.25;entryDx=0;entryDy=0;fontSize=15;" edge="1" parent="1" source="8W87F8Ofjh_P7PELW41l-147" target="8W87F8Ofjh_P7PELW41l-158">
          <mxGeometry relative="1" as="geometry" />
        </mxCell>
        <mxCell id="8W87F8Ofjh_P7PELW41l-202" value="groupBy" style="text;html=1;strokeColor=none;fillColor=none;align=center;verticalAlign=middle;whiteSpace=wrap;rounded=0;fontSize=15;" vertex="1" parent="1">
          <mxGeometry x="2038" y="670" width="60" height="30" as="geometry" />
        </mxCell>
        <mxCell id="8W87F8Ofjh_P7PELW41l-204" value="union" style="text;html=1;strokeColor=none;fillColor=none;align=center;verticalAlign=middle;whiteSpace=wrap;rounded=0;fontSize=15;" vertex="1" parent="1">
          <mxGeometry x="2052.5" y="925" width="60" height="30" as="geometry" />
        </mxCell>
        <mxCell id="8W87F8Ofjh_P7PELW41l-205" value="join" style="text;html=1;strokeColor=none;fillColor=none;align=center;verticalAlign=middle;whiteSpace=wrap;rounded=0;fontSize=15;" vertex="1" parent="1">
          <mxGeometry x="2287" y="830" width="60" height="30" as="geometry" />
        </mxCell>
        <mxCell id="8W87F8Ofjh_P7PELW41l-218" style="edgeStyle=none;rounded=0;orthogonalLoop=1;jettySize=auto;html=1;exitX=1;exitY=0.5;exitDx=0;exitDy=0;exitPerimeter=0;entryX=0;entryY=0.5;entryDx=0;entryDy=0;fontSize=15;" edge="1" parent="1" source="8W87F8Ofjh_P7PELW41l-206" target="8W87F8Ofjh_P7PELW41l-210">
          <mxGeometry relative="1" as="geometry" />
        </mxCell>
        <mxCell id="8W87F8Ofjh_P7PELW41l-206" value="用户&lt;br&gt;数据库" style="shape=cylinder3;whiteSpace=wrap;html=1;boundedLbl=1;backgroundOutline=1;size=15;strokeWidth=1.5;fontSize=15;" vertex="1" parent="1">
          <mxGeometry x="1268" y="243.5" width="60" height="80" as="geometry" />
        </mxCell>
        <mxCell id="8W87F8Ofjh_P7PELW41l-207" value="用户" style="shape=umlActor;verticalLabelPosition=bottom;verticalAlign=top;html=1;outlineConnect=0;strokeWidth=1.5;fontSize=15;" vertex="1" parent="1">
          <mxGeometry x="1286" y="365" width="30" height="60" as="geometry" />
        </mxCell>
        <mxCell id="8W87F8Ofjh_P7PELW41l-209" value="推荐系统" style="text;html=1;strokeColor=none;fillColor=none;align=center;verticalAlign=middle;whiteSpace=wrap;rounded=0;fontSize=15;" vertex="1" parent="1">
          <mxGeometry x="1833" y="422" width="88" height="30" as="geometry" />
        </mxCell>
        <mxCell id="8W87F8Ofjh_P7PELW41l-219" style="edgeStyle=none;rounded=0;orthogonalLoop=1;jettySize=auto;html=1;exitX=1;exitY=0.5;exitDx=0;exitDy=0;entryX=0;entryY=0.5;entryDx=0;entryDy=0;fontSize=15;" edge="1" parent="1" source="8W87F8Ofjh_P7PELW41l-210" target="8W87F8Ofjh_P7PELW41l-212">
          <mxGeometry relative="1" as="geometry" />
        </mxCell>
        <mxCell id="8W87F8Ofjh_P7PELW41l-210" value="用户兴趣数据" style="rounded=1;whiteSpace=wrap;html=1;strokeWidth=1.5;fontSize=15;" vertex="1" parent="1">
          <mxGeometry x="1386" y="252" width="87" height="63" as="geometry" />
        </mxCell>
        <mxCell id="8W87F8Ofjh_P7PELW41l-220" style="edgeStyle=none;rounded=0;orthogonalLoop=1;jettySize=auto;html=1;exitX=0.5;exitY=1;exitDx=0;exitDy=0;entryX=0.5;entryY=0;entryDx=0;entryDy=0;fontSize=15;" edge="1" parent="1" source="8W87F8Ofjh_P7PELW41l-212" target="8W87F8Ofjh_P7PELW41l-215">
          <mxGeometry relative="1" as="geometry" />
        </mxCell>
        <mxCell id="8W87F8Ofjh_P7PELW41l-212" value="用户数据建模" style="rounded=1;whiteSpace=wrap;html=1;strokeWidth=1.5;fontSize=15;" vertex="1" parent="1">
          <mxGeometry x="1509" y="252" width="87" height="63" as="geometry" />
        </mxCell>
        <mxCell id="8W87F8Ofjh_P7PELW41l-221" style="edgeStyle=none;rounded=0;orthogonalLoop=1;jettySize=auto;html=1;exitX=0.5;exitY=1;exitDx=0;exitDy=0;fontSize=15;entryX=0.5;entryY=0;entryDx=0;entryDy=0;" edge="1" parent="1" source="8W87F8Ofjh_P7PELW41l-213" target="8W87F8Ofjh_P7PELW41l-215">
          <mxGeometry relative="1" as="geometry">
            <mxPoint x="1643" y="384" as="targetPoint" />
          </mxGeometry>
        </mxCell>
        <mxCell id="8W87F8Ofjh_P7PELW41l-213" value="项目建模" style="rounded=1;whiteSpace=wrap;html=1;strokeWidth=1.5;fontSize=15;" vertex="1" parent="1">
          <mxGeometry x="1684" y="253.5" width="87" height="63" as="geometry" />
        </mxCell>
        <mxCell id="8W87F8Ofjh_P7PELW41l-222" style="edgeStyle=none;rounded=0;orthogonalLoop=1;jettySize=auto;html=1;exitX=0;exitY=0.5;exitDx=0;exitDy=0;entryX=1;entryY=0.5;entryDx=0;entryDy=0;fontSize=15;" edge="1" parent="1" source="8W87F8Ofjh_P7PELW41l-214" target="8W87F8Ofjh_P7PELW41l-213">
          <mxGeometry relative="1" as="geometry" />
        </mxCell>
        <mxCell id="8W87F8Ofjh_P7PELW41l-214" value="项目信息" style="rounded=1;whiteSpace=wrap;html=1;strokeWidth=1.5;fontSize=15;" vertex="1" parent="1">
          <mxGeometry x="1806" y="253.5" width="87" height="63" as="geometry" />
        </mxCell>
        <mxCell id="8W87F8Ofjh_P7PELW41l-228" style="edgeStyle=none;rounded=0;orthogonalLoop=1;jettySize=auto;html=1;exitX=0;exitY=0.5;exitDx=0;exitDy=0;fontSize=15;" edge="1" parent="1" source="8W87F8Ofjh_P7PELW41l-215">
          <mxGeometry relative="1" as="geometry">
            <mxPoint x="1326" y="414" as="targetPoint" />
          </mxGeometry>
        </mxCell>
        <mxCell id="8W87F8Ofjh_P7PELW41l-215" value="推荐算法" style="rounded=1;whiteSpace=wrap;html=1;strokeWidth=1.5;fontSize=15;" vertex="1" parent="1">
          <mxGeometry x="1600.5" y="382" width="87" height="63" as="geometry" />
        </mxCell>
        <mxCell id="8W87F8Ofjh_P7PELW41l-223" style="edgeStyle=none;rounded=0;orthogonalLoop=1;jettySize=auto;html=1;exitX=0;exitY=0.5;exitDx=0;exitDy=0;exitPerimeter=0;fontSize=15;" edge="1" parent="1" source="8W87F8Ofjh_P7PELW41l-216" target="8W87F8Ofjh_P7PELW41l-214">
          <mxGeometry relative="1" as="geometry" />
        </mxCell>
        <mxCell id="8W87F8Ofjh_P7PELW41l-216" value="项目&lt;br&gt;数据库" style="shape=cylinder3;whiteSpace=wrap;html=1;boundedLbl=1;backgroundOutline=1;size=15;strokeWidth=1.5;fontSize=15;" vertex="1" parent="1">
          <mxGeometry x="1975" y="245" width="60" height="80" as="geometry" />
        </mxCell>
        <mxCell id="8W87F8Ofjh_P7PELW41l-224" style="edgeStyle=none;rounded=0;orthogonalLoop=1;jettySize=auto;html=1;exitX=0.5;exitY=1;exitDx=0;exitDy=0;exitPerimeter=0;entryX=0.5;entryY=0;entryDx=0;entryDy=0;fontSize=15;" edge="1" parent="1" source="8W87F8Ofjh_P7PELW41l-217" target="8W87F8Ofjh_P7PELW41l-212">
          <mxGeometry relative="1" as="geometry" />
        </mxCell>
        <mxCell id="8W87F8Ofjh_P7PELW41l-225" style="edgeStyle=none;rounded=0;orthogonalLoop=1;jettySize=auto;html=1;exitX=0.5;exitY=1;exitDx=0;exitDy=0;exitPerimeter=0;entryX=0.5;entryY=0;entryDx=0;entryDy=0;fontSize=15;" edge="1" parent="1" source="8W87F8Ofjh_P7PELW41l-217" target="8W87F8Ofjh_P7PELW41l-213">
          <mxGeometry relative="1" as="geometry" />
        </mxCell>
        <mxCell id="8W87F8Ofjh_P7PELW41l-227" style="edgeStyle=none;rounded=0;orthogonalLoop=1;jettySize=auto;html=1;exitX=0.5;exitY=1;exitDx=0;exitDy=0;exitPerimeter=0;entryX=0.5;entryY=0;entryDx=0;entryDy=0;fontSize=15;" edge="1" parent="1" source="8W87F8Ofjh_P7PELW41l-217" target="8W87F8Ofjh_P7PELW41l-215">
          <mxGeometry relative="1" as="geometry" />
        </mxCell>
        <mxCell id="8W87F8Ofjh_P7PELW41l-217" value="领域知识" style="shape=cylinder3;whiteSpace=wrap;html=1;boundedLbl=1;backgroundOutline=1;size=15;strokeWidth=1.5;fontSize=15;" vertex="1" parent="1">
          <mxGeometry x="1614" y="112" width="60" height="80" as="geometry" />
        </mxCell>
        <mxCell id="8W87F8Ofjh_P7PELW41l-229" value="推荐列表" style="text;html=1;strokeColor=none;fillColor=none;align=center;verticalAlign=middle;whiteSpace=wrap;rounded=0;fontSize=15;" vertex="1" parent="1">
          <mxGeometry x="1428" y="382" width="78" height="30" as="geometry" />
        </mxCell>
      </root>
    </mxGraphModel>
  </diagram>
</mxfile>
